<svg data-name="Layer 1" xmlns="http://www.w3.org/2000/svg" viewBox="0 0 250 135">
            <path d="M.7,5.06a.7.7,0,1,0,0,1.39H61.59a4.68,4.68,0,0,1,4.68,4.68V62.18a4.69,4.69,0,0,1-4.68,4.68H.7a.7.7,0,1,0,0,1.39H61.59a6.07,6.07,0,0,0,6.07-6.07v-51a6.07,6.07,0,0,0-6.07-6.07Z" style="fill:#bedcff"></path>
            <path d="M67,1.32H.7A.7.7,0,0,0,0,2a.69.69,0,0,0,.7.69H67a.69.69,0,0,0,.7-.69A.7.7,0,0,0,67,1.32Z" style="fill:#bedcff"></path>
            <path d="M55.76,10.72H.7a.7.7,0,1,0,0,1.39H6.94V16H.7a.7.7,0,1,0,0,1.39H6.94v3.52H.7a.7.7,0,1,0,0,1.39H6.94v3.52H.7a.7.7,0,1,0,0,1.39H6.94V30.7H.7a.7.7,0,0,0-.7.7.69.69,0,0,0,.7.69H6.94V36H.7a.7.7,0,1,0,0,1.39H55.76a.69.69,0,0,0,.69-.7V11.41A.69.69,0,0,0,55.76,10.72ZM15.28,27.18h5.55V30.7H15.28Zm0-4.91h5.55v3.52H15.28Zm0-4.91h5.55v3.52H15.28Zm39.78,3.52H50V17.36h5.06Zm0,4.91H50V22.27h5.06ZM22.22,22.27h5.56v3.52H22.22Zm7,0h5.55v3.52H29.17Zm6.94,0h5.56v3.52H36.11Zm7,0h5.55v3.52H43.06Zm5.55-1.39H43.06V17.36h5.55Zm-6.94,0H36.11V17.36h5.56Zm-7,0H29.17V17.36h5.55Zm-6.94,0H22.22V17.36h5.56Zm-5.56,6.3h5.56V30.7H22.22Zm7,0h5.55V30.7H29.17Zm6.94,0h5.56V30.7H36.11Zm7,0h5.55V30.7H43.06Zm6.94,0h5.06V30.7H50ZM55.06,16H50V12.11h5.06Zm-6.45,0H43.06V12.11h5.55Zm-6.94,0H36.11V12.11h5.56Zm-7,0H29.17V12.11h5.55Zm-6.94,0H22.22V12.11h5.56Zm-7,0H15.28V12.11h5.55ZM8.33,12.11h5.56V16H8.33Zm0,5.25h5.56v3.52H8.33Zm0,4.91h5.56v3.52H8.33Zm0,4.91h5.56V30.7H8.33Zm0,4.91h5.56V36H8.33Zm7,0h5.55V36H15.28Zm6.94,0h5.56V36H22.22Zm7,0h5.55V36H29.17Zm6.94,0h5.56V36H36.11Zm7,0h5.55V36H43.06Zm12,3.87H50V32.09h5.06Z" style="fill:#bedcff"></path>
            <path d="M.7,57.5a.7.7,0,1,0,0,1.39H21.53a.69.69,0,0,0,.69-.69V41.55a.69.69,0,0,0-.69-.69H.7a.7.7,0,1,0,0,1.39H20.83V57.5Z" style="fill:#bedcff"></path>
            <path d="M44.43,107.23a2.63,2.63,0,0,0-3-2.21L33.6,106.2a12.9,12.9,0,1,0,.73,5.2l-.19,0a.7.7,0,0,1-.79-.59.69.69,0,0,1,.58-.79l.42-.06a12.8,12.8,0,0,0-.14-1.36,9.37,9.37,0,0,0-.21-1.08l7.65-1.15a1.23,1.23,0,0,1,.37,2.44L34.35,110a13.27,13.27,0,0,1,0,1.41l7.89-1.19A2.62,2.62,0,0,0,44.43,107.23Zm-21.26,14.7a11.51,11.51,0,1,1,9.67-13.09A11.51,11.51,0,0,1,23.17,121.93Z" style="fill:#bedcff"></path>
            <path d="M34.35,110l-.42.06a.69.69,0,0,0-.58.79.7.7,0,0,0,.79.59l.19,0A13.27,13.27,0,0,0,34.35,110Z" style="fill:#bedcff"></path>
            <path d="M39.62,113.61a.69.69,0,1,0-1.37.21l.9,6a4.29,4.29,0,0,1-3.6,4.89l-23.38,3.51a4.28,4.28,0,0,1-4.88-3.6L3.77,101.26a4.28,4.28,0,0,1,3.6-4.88l23.38-3.52a4.29,4.29,0,0,1,4.88,3.6l1,6.45A.69.69,0,0,0,38,102.7l-1-6.44a5.69,5.69,0,0,0-6.46-4.78L7.16,95a5.69,5.69,0,0,0-4.77,6.46l3.52,23.39a5.69,5.69,0,0,0,6.46,4.77l23.39-3.52a5.69,5.69,0,0,0,4.77-6.46Z" style="fill:#bedcff"></path>
            <path d="M54.15,89.77a4.82,4.82,0,0,1-3.4-1.4.69.69,0,0,0-1,1,6.22,6.22,0,0,0,9.31-8.22.7.7,0,0,0-1-.12A.69.69,0,0,0,58,82a4.83,4.83,0,0,1-3.83,7.79Z" style="fill:#bedcff"></path>
            <path d="M67.53,71.3a6.23,6.23,0,1,0,6.22,6.22A6.23,6.23,0,0,0,67.53,71.3Zm0,11.06a4.84,4.84,0,1,1,4.83-4.84A4.84,4.84,0,0,1,67.53,82.36Z" style="fill:#bedcff"></path>
            <path d="M67.53,89.84a6.23,6.23,0,1,0,6.22,6.22A6.23,6.23,0,0,0,67.53,89.84Zm0,11.06a4.84,4.84,0,1,1,4.83-4.84A4.84,4.84,0,0,1,67.53,100.9Z" style="fill:#bedcff"></path>
            <path d="M217.36,96.48a.7.7,0,0,0-.55.82.72.72,0,0,0,.82.55l1.07-.22-.27-1.36Z" style="fill:#bedcff"></path>
            <path d="M249.17,128.74l-16.92,3.36a5.19,5.19,0,0,1-5.74-2.95,5.51,5.51,0,0,1-.36-1.13l-.15-.76,1.06-.22a.69.69,0,1,0-.27-1.36l-1.06.21-.92-4.61,1.07-.21a.72.72,0,0,0,.55-.82.7.7,0,0,0-.82-.55l-1.07.21-.91-4.61,1.06-.21a.7.7,0,0,0,.55-.82.69.69,0,0,0-.82-.55l-1.07.21-.62-3.14-.29-1.47,1.06-.21a.7.7,0,0,0-.27-1.37l-1.06.21-.92-4.61,1.07-.21a.7.7,0,0,0,.55-.82.71.71,0,0,0-.83-.55L221,102l-.91-4.61,1.06-.21a.7.7,0,0,0-.27-1.37l-1.07.21-.5-2.56L219.2,93a5.17,5.17,0,0,1,4.07-6.09L247,82.18a5.29,5.29,0,0,1,2.06,0,.7.7,0,0,0,.28-1.37,6.55,6.55,0,0,0-2.61,0L223,85.52a6.58,6.58,0,0,0-5.17,7.73l.09.45.51,2.57.27,1.36.91,4.61-1.06.21a.71.71,0,0,0-.55.83.7.7,0,0,0,.82.54l1.06-.21.92,4.61-1.06.21a.7.7,0,0,0-.55.82.69.69,0,0,0,.82.55l1.06-.21.29,1.47.63,3.14-1.07.21a.7.7,0,1,0,.27,1.37l1.07-.21.91,4.61-1.06.21a.7.7,0,0,0-.55.82.69.69,0,0,0,.82.55l1.06-.21.92,4.61-1.06.21a.69.69,0,0,0-.55.82.7.7,0,0,0,.82.55l1.06-.21.15.76a6.29,6.29,0,0,0,.46,1.43,6.58,6.58,0,0,0,7.28,3.74l16.92-3.35a.71.71,0,0,0,.55-.82A.7.7,0,0,0,249.17,128.74Z" style="fill:#bedcff"></path>
            <path d="M242.94,105.12a.7.7,0,0,0-.28-1.37l-8.92,1.77a.7.7,0,0,0-.55.82.69.69,0,0,0,.82.55Z" style="fill:#bedcff"></path>
            <path d="M231.22,110.88a.71.71,0,0,0,.82.55l14.45-2.87a.71.71,0,0,0,.55-.82.7.7,0,0,0-.82-.55l-14.45,2.87A.7.7,0,0,0,231.22,110.88Z" style="fill:#bedcff"></path>
            <path d="M249.71,4.31a.57.57,0,0,0-.81.1L224.72,35.59,187.16,23.54a.58.58,0,0,0-.73.72l10.66,34.42a.57.57,0,0,0,.72.38l51.64-16a.57.57,0,0,0,.38-.72.57.57,0,0,0-.72-.38L198,57.79,187.86,25l36.89,11.83a.56.56,0,0,0,.64-.2L249.81,5.12A.57.57,0,0,0,249.71,4.31Z" style="fill:#bedcff"></path>
            <path d="M242.58,1a.57.57,0,0,0-.38.72l.93,3a.58.58,0,0,0,1.11-.34l-.94-3A.57.57,0,0,0,242.58,1Z" style="fill:#bedcff"></path>
            <path d="M191,20.92a.58.58,0,1,0,1.1-.34L187.67,6.23l13.24-4.1a.57.57,0,0,0,.38-.72.57.57,0,0,0-.72-.38L186.77,5.3a.59.59,0,0,0-.38.72Z" style="fill:#bedcff"></path>
            <path d="M220.18,1,195.05,8.81a.58.58,0,0,0,.34,1.11l25.13-7.79a.58.58,0,0,0,.38-.72A.57.57,0,0,0,220.18,1Z" style="fill:#bedcff"></path>
            <path d="M236.69,3.27a.57.57,0,0,0-.72-.38L197,15a.56.56,0,0,0-.38.72.57.57,0,0,0,.72.38L236.31,4A.57.57,0,0,0,236.69,3.27Z" style="fill:#bedcff"></path>
            <path d="M238.6,9.43a.58.58,0,0,0-.72-.38l-39,12.09a.58.58,0,0,0,.34,1.1l39-12.08A.58.58,0,0,0,238.6,9.43Z" style="fill:#bedcff"></path>
            <path d="M231.6,18.36a.57.57,0,0,0-.72-.38l-21.19,6.56a.58.58,0,0,0,.34,1.11l21.19-6.57A.57.57,0,0,0,231.6,18.36Z" style="fill:#bedcff"></path>
            <path d="M203.3,75.84l-4.22-1.74a.69.69,0,0,0-.91.38.71.71,0,0,0,.38.91l4.21,1.74a.69.69,0,0,0,.91-.38A.7.7,0,0,0,203.3,75.84Z" style="fill:#bedcff"></path>
            <path d="M186.1,111.49a2.94,2.94,0,1,0-1.6-3.84A2.94,2.94,0,0,0,186.1,111.49Zm-.31-3.31a1.55,1.55,0,1,1,.84,2A1.55,1.55,0,0,1,185.79,108.18Z" style="fill:#bedcff"></path>
            <path d="M209.69,74.12l-13.92-5.75a5.12,5.12,0,0,0-6.69,2.78l-1.43,3.46h0l-12.32,29.81a5.12,5.12,0,0,0,2.78,6.69L192,116.86a5.12,5.12,0,0,0,6.69-2.78l2.1-5.08h0l11.65-28.19A5.12,5.12,0,0,0,209.69,74.12Zm-12.27,39.43a3.72,3.72,0,0,1-4.86,2l-13.92-5.75a3.73,3.73,0,0,1-2-4.87l1.83-4.44,20.81,8.6Zm2.37-5.73L179,99.22l9.69-23.43,20.8,8.6Zm11.38-27.54L210,83.1l-20.8-8.6,1.16-2.82a3.74,3.74,0,0,1,4.87-2l13.91,5.75A3.72,3.72,0,0,1,211.17,80.28Z" style="fill:#bedcff"></path>
            <polygon points="149.92 39.23 149.52 39.27 149.6 39.42 149.92 39.23" style="fill:#bedcff"></polygon>
            <path d="M148.17,35.34l1.93,3.78,27.49-16.55L181,20.52l-.87-1.61.6-.36a.93.93,0,0,1,1.31.37l2,3.59a1.05,1.05,0,0,1-.36,1.38L181,25.46l1.14,2.09a1.08,1.08,0,0,1,.1.77,1,1,0,0,1-.45.61L171.73,35a.9.9,0,0,1-.47.13,1,1,0,0,1-.84-.51,1,1,0,0,1,.36-1.38L180,27.68l-.66-1.22-15.48,9.32-.09,74.68h.09v5.07h-.09l-5-5.08.08-71.67-6.67,4h0l-.06,0,0,0-.06,0H152l-.06,0h-.07l-5,.5h-.09a1,1,0,0,1-.84-.53,1,1,0,0,1,.08-1.1l1.62-2.18.12-.16-2.66.29ZM101.35,18.42l4.7,23.42a3,3,0,0,0-2.37.06l-9.84,5.21-.08-28.7Zm-24,36.46,8.43-4.09,23.86,48.5,15.94-8.05s3.83-1.29,2.14-4.9L106.5,41.22a5.51,5.51,0,0,1,4.83,3.21l19.46,41.36a5.8,5.8,0,0,1-2.54,7.64l-11.5,5.82,2.31,11.86-25.3,0V98.73l2.14,4.32a2.84,2.84,0,0,0,3.75,1.27l.88-.43,6.25-3.15-5.53,2.72s-2.66,1.36-4.1-1.74L76,58.74A2.76,2.76,0,0,1,77.36,54.88Z" style="fill:#bedcff"></path>
            <path d="M97.16,101.72c1.44,3.1,4.1,1.74,4.1,1.74l5.53-2.72-6.25,3.15-.88.43a2.84,2.84,0,0,1-3.75-1.27l-2.14-4.32v12.36l25.3,0-2.31-11.86,11.5-5.82a5.8,5.8,0,0,0,2.54-7.64L111.33,44.43a5.51,5.51,0,0,0-4.83-3.21l21.23,45.12c1.69,3.61-2.14,4.9-2.14,4.9l-15.94,8.05L85.79,50.79l-8.43,4.09A2.76,2.76,0,0,0,76,58.74Z" style="fill:#bedcff"></path>
            <path d="M147.63,39.62,146,41.8a1,1,0,0,0-.08,1.1,1,1,0,0,0,.84.53h.09l5-.5h.07l.06,0h.06l.06,0,0,0,.06,0h0l6.67-4-.08,71.67,5,5.08h.09v-5.07h-.09l.09-74.68,15.48-9.32.66,1.22-9.24,5.56a1,1,0,0,0-.36,1.38,1,1,0,0,0,.84.51.9.9,0,0,0,.47-.13l10.08-6.07a1,1,0,0,0,.45-.61,1.08,1.08,0,0,0-.1-.77L181,25.46l2.62-1.57a1.05,1.05,0,0,0,.36-1.38l-2-3.59a.93.93,0,0,0-1.31-.37l-.6.36.87,1.61-3.41,2.05L150.1,39.12l-1.93-3.78-3.08,4.41,2.66-.29Zm2.29-.39-.32.19-.08-.15Z" style="fill:#bedcff"></path>
            <path d="M103.68,41.9a3,3,0,0,1,2.37-.06l-4.7-23.42H93.76l.08,28.7Z" style="fill:#bedcff"></path>
            <path d="M138.74,83.94c.53,0,1-.31,1-.71s-.42-.72-1-.73l-7.46,0c-.54,0-1,.32-1,.72s.42.72,1,.72Z" style="fill:#0078d4"></path>
            <path d="M139.43,77.35l-11,0c-.56,0-1,.32-1,.72s.45.72,1,.72l11,0c.56,0,1-.32,1-.71S140,77.35,139.43,77.35Z" style="fill:#0078d4"></path>
            <path d="M159.88,110.19,160,37.84a1,1,0,1,0-1.93,0L158,109.21l-63.29-.07v-4.25a1,1,0,1,0-1.93,0l0,5.22a1,1,0,0,0,1,1l65.22.07A1,1,0,0,0,159.88,110.19Z" style="fill:#0078d4"></path>
            <path d="M139.71,64.1c0-.4-.43-.72-1-.73l-16.86,0c-.54,0-1,.32-1,.72s.43.72,1,.72l16.86,0C139.28,64.82,139.71,64.49,139.71,64.1Z" style="fill:#0078d4"></path>
            <path d="M125.47,71.41l13.3,0a.75.75,0,1,0,0-1.44l-13.29,0a.85.85,0,0,0-1,.71A.86.86,0,0,0,125.47,71.41Z" style="fill:#0078d4"></path>
            <path d="M139.45,56.75l-20.44,0c-.54,0-1,.32-1,.72s.44.72,1,.72l20.44,0c.54,0,1-.32,1-.71S140,56.75,139.45,56.75Z" style="fill:#0078d4"></path>
            <path d="M153.17,60.69a.89.89,0,0,0-1.32,0l-4.47,4.69-1-1.06a.92.92,0,0,0-1.33,0,1,1,0,0,0,0,1.39l1.67,1.76a.92.92,0,0,0,1.33,0l5.12-5.39A1,1,0,0,0,153.17,60.69Z" style="fill:#0078d4"></path>
            <path d="M153.17,74.67a.89.89,0,0,0-1.32,0l-4.47,4.69-1-1.06a.9.9,0,0,0-1.33,0,1,1,0,0,0,0,1.39l1.67,1.76a.92.92,0,0,0,1.33,0l5.12-5.39A1,1,0,0,0,153.17,74.67Z" style="fill:#0078d4"></path>
            <path d="M93.78,42a1,1,0,0,0,1-1l-.08-22.12L158,19v3.79a1,1,0,0,0,1,1,1,1,0,0,0,1-1V18a1,1,0,0,0-1-1L93.69,17a1,1,0,0,0-1,1l.08,23.09A1,1,0,0,0,93.78,42Z" style="fill:#0078d4"></path>
            <path d="M151.85,87.18l-4.47,4.68-1-1a.9.9,0,0,0-1.33,0,1,1,0,0,0,0,1.39L146.72,94a.9.9,0,0,0,1.33,0l5.12-5.38a1,1,0,0,0,0-1.39A.89.89,0,0,0,151.85,87.18Z" style="fill:#0078d4"></path>
            <path d="M153.17,47.45a.89.89,0,0,0-1.32,0l-4.47,4.69-1-1.06a.9.9,0,0,0-1.33,0,1,1,0,0,0,0,1.39l1.67,1.76a.92.92,0,0,0,1.33,0l5.12-5.39A1,1,0,0,0,153.17,47.45Z" style="fill:#0078d4"></path>
            <path d="M140.44,90.58c0-.4-.45-.72-1-.72l-8.1,0c-.56,0-1,.32-1,.72s.44.72,1,.72l8.11,0C140,91.3,140.43,91,140.44,90.58Z" style="fill:#0078d4"></path>
            <path d="M118.33,32.44h11c.56,0,1-.32,1-.73s-.46-.73-1-.73h-11c-.57,0-1,.33-1,.73S117.76,32.43,118.33,32.44Z" style="fill:#0078d4"></path>
            <path d="M122.59,96.45c-.52,0-1,.32-1,.72a.86.86,0,0,0,1,.73l16.17,0c.53,0,1-.32,1-.72a.85.85,0,0,0-.94-.72Z" style="fill:#0078d4"></path>
            <path d="M139.46,50.87l-23.35,0c-.54,0-1,.32-1,.72s.44.72,1,.72l23.35,0c.54,0,1-.32,1-.72S140,50.87,139.46,50.87Z" style="fill:#0078d4"></path>
            <path d="M102.59,91.38l.57-1.61,2,.74a.94.94,0,0,0,1.21-.62,1,1,0,0,0-.59-1.28l-2-.72.42-1.19a1,1,0,0,0-.62-1.23,1,1,0,0,0-1.25.6l-.4,1.15-.76-.28a1,1,0,0,0-1.21.62,1,1,0,0,0,.59,1.28l.72.26-.58,1.66a1,1,0,0,0,.61,1.22A1,1,0,0,0,102.59,91.38Z" style="fill:#0078d4"></path>
            <path d="M101.37,97.82l10.14-5.09a.49.49,0,0,0,.17-.06l.17-.11L124,86.49a1,1,0,0,0,.45-1.35L114.31,63.91a1,1,0,0,0-1.31-.46L90.38,74.78a1,1,0,0,0-.45,1.34l4.63,9.71a1,1,0,0,0-.29,1.23,1,1,0,0,0,1.13.53l4.66,9.77A1,1,0,0,0,101.37,97.82Zm20.87-12.7-10.56,5.3-4.32-8.76,10.7-5.32ZM113,65.69l4.22,8.86-10.72,5.33-4.33-8.76ZM92.12,76.14,100.36,72l4.33,8.76-8.38,4.17Zm13.45,6.41,4.32,8.76-8.5,4.27-4.22-8.85Z" style="fill:#0078d4"></path>
            <path d="M100.52,78.73l.33-.17a1.07,1.07,0,0,0,.45-1.39,1,1,0,0,0-1.32-.48l-.38.2L99,75.68a1,1,0,0,0-1.37-.46,1,1,0,0,0-.47,1.34l.63,1.26L95.44,79A1.07,1.07,0,0,0,95,80.42a1,1,0,0,0,1.32.48l2.4-1.24.75,1.51a1,1,0,0,0,1.37.46,1,1,0,0,0,.46-1.33Z" style="fill:#0078d4"></path>
            <path d="M129.29,27.29c.56,0,1-.32,1-.73s-.46-.73-1-.73h-11c-.57,0-1,.33-1,.73s.46.73,1,.74Z" style="fill:#0078d4"></path>
            <path d="M100.83,104.88l27.36-13.67A3.91,3.91,0,0,0,129.93,86L109.21,42.71a3.76,3.76,0,0,0-5.07-1.78L93.8,46.1l-17,8.5A3.92,3.92,0,0,0,75,59.79L95.75,103.1A3.75,3.75,0,0,0,100.83,104.88Zm-23.2-48.5,17-8.51L105,42.71a1.84,1.84,0,0,1,2.49.87l20.71,43.31a1.93,1.93,0,0,1-.85,2.55L100,103.11a1.84,1.84,0,0,1-2.49-.87L76.77,58.92A1.91,1.91,0,0,1,77.63,56.38Z" style="fill:#0078d4"></path>
            <path d="M163.33,33.92a1,1,0,0,0-1,1l-.08,78.73L98,113.55a1,1,0,0,0,0,2l65.21.07a1,1,0,0,0,1-1l.08-79.7A1,1,0,0,0,163.33,33.92Z" style="fill:#0078d4"></path>
            <path d="M108.6,75l4.54-2.34a1.07,1.07,0,0,0,.45-1.39,1,1,0,0,0-1.32-.47l-4.54,2.33a1.07,1.07,0,0,0-.45,1.39A1,1,0,0,0,108.6,75Z" style="fill:#0078d4"></path>
            <path d="M101.66,25.82a1,1,0,0,0-1,1V38.07a1,1,0,0,0,1,1l11.07,0a1,1,0,0,0,1-1V26.82a1,1,0,0,0-1-1Zm10.08,11.27h-9.13V27.8h9.13Z" style="fill:#0078d4"></path>
            <path d="M118.33,38.32h11c.57,0,1-.33,1-.73s-.46-.73-1-.73h-11c-.57,0-1,.32-1,.73S117.76,38.32,118.33,38.32Z" style="fill:#0078d4"></path>
            <path d="M111.62,84.1a1,1,0,0,0,1.32.47l4.53-2.33a1.08,1.08,0,0,0,.46-1.39,1,1,0,0,0-1.32-.48l-4.54,2.34A1.06,1.06,0,0,0,111.62,84.1Z" style="fill:#0078d4"></path>
            <path d="M181.75,16a1,1,0,0,0-1.3-.36l-3.39,2a1.45,1.45,0,0,0-.23.19l-.1.05L149,33.92a1,1,0,0,0-.86.37L145,38.23a1,1,0,0,0,.89,1.57l4-.38a1,1,0,0,0,1.26.25l27.59-16,.6,1-9.47,5.24a.94.94,0,0,0-.37,1.3,1,1,0,0,0,1.35.35l10.32-5.71a.94.94,0,0,0,.36-1.3l-1.2-2,3-1.76a1,1,0,0,0,.36-1.33ZM148,37.64l.49-.61.31.54Zm3-.19-1-1.8,26.88-15.57,1,1.8Zm28.83-16.86-1-1.76,1.73-1,1,1.76Z" style="fill:#0078d4"></path>
            <path d="M117.33,82.58l-4.54,2.33a1.08,1.08,0,0,0-.45,1.39,1,1,0,0,0,1.32.48l4.54-2.34a1.06,1.06,0,0,0,.45-1.38A1,1,0,0,0,117.33,82.58Z" style="fill:#0078d4"></path>
            <path d="M110,57.33l-4.59-9.62a1,1,0,0,0-1.29-.45L81.7,58.46a1,1,0,0,0-.44,1.33l4.59,9.62a1,1,0,0,0,1.29.45l22.39-11.2A1,1,0,0,0,110,57.33ZM87.16,67.65l-3.74-7.84,20.65-10.33,3.74,7.83Z" style="fill:#0078d4"></path>
        </svg>